<?xml version="1.0" encoding="UTF-8" standalone="no"?>
<!-- Created with Inkscape (http://www.inkscape.org/) -->

<svg
   xmlns:dc="http://purl.org/dc/elements/1.1/"
   xmlns:cc="http://creativecommons.org/ns#"
   xmlns:rdf="http://www.w3.org/1999/02/22-rdf-syntax-ns#"
   xmlns:svg="http://www.w3.org/2000/svg"
   xmlns="http://www.w3.org/2000/svg"
   xmlns:sodipodi="http://sodipodi.sourceforge.net/DTD/sodipodi-0.dtd"
   xmlns:inkscape="http://www.inkscape.org/namespaces/inkscape"
   width="301.21277mm"
   height="62.541069mm"
   viewBox="0 0 301.21277 62.541069"
   version="1.1"
   id="svg7874"
   inkscape:version="0.92.5 (2060ec1f9f, 2020-04-08)"
   sodipodi:docname="data_pipeline.svg">
  <defs
     id="defs7868">
    <marker
       inkscape:stockid="Arrow1Lstart"
       orient="auto"
       refY="0"
       refX="0"
       id="marker9835"
       style="overflow:visible"
       inkscape:isstock="true">
      <path
         id="path9833"
         d="M 0,0 5,-5 -12.5,0 5,5 Z"
         style="fill:#000000;fill-opacity:1;fill-rule:evenodd;stroke:#000000;stroke-width:1.00000003pt;stroke-opacity:1"
         transform="matrix(0.8,0,0,0.8,10,0)"
         inkscape:connector-curvature="0" />
    </marker>
    <marker
       inkscape:isstock="true"
       style="overflow:visible"
       id="marker9409"
       refX="0"
       refY="0"
       orient="auto"
       inkscape:stockid="Arrow1Lstart"
       inkscape:collect="always">
      <path
         transform="matrix(0.8,0,0,0.8,10,0)"
         style="fill:#000000;fill-opacity:1;fill-rule:evenodd;stroke:#000000;stroke-width:1.00000003pt;stroke-opacity:1"
         d="M 0,0 5,-5 -12.5,0 5,5 Z"
         id="path9407"
         inkscape:connector-curvature="0" />
    </marker>
    <marker
       inkscape:stockid="Arrow1Lstart"
       orient="auto"
       refY="0"
       refX="0"
       id="Arrow1Lstart"
       style="overflow:visible"
       inkscape:isstock="true"
       inkscape:collect="always">
      <path
         id="path8467"
         d="M 0,0 5,-5 -12.5,0 5,5 Z"
         style="fill:#000000;fill-opacity:1;fill-rule:evenodd;stroke:#000000;stroke-width:1.00000003pt;stroke-opacity:1"
         transform="matrix(0.8,0,0,0.8,10,0)"
         inkscape:connector-curvature="0" />
    </marker>
    <marker
       inkscape:stockid="Arrow1Lend"
       orient="auto"
       refY="0"
       refX="0"
       id="Arrow1Lend"
       style="overflow:visible"
       inkscape:isstock="true">
      <path
         id="path8470"
         d="M 0,0 5,-5 -12.5,0 5,5 Z"
         style="fill:#000000;fill-opacity:1;fill-rule:evenodd;stroke:#000000;stroke-width:1.00000003pt;stroke-opacity:1"
         transform="matrix(-0.8,0,0,-0.8,-10,0)"
         inkscape:connector-curvature="0" />
    </marker>
  </defs>
  <sodipodi:namedview
     id="base"
     pagecolor="#ffffff"
     bordercolor="#666666"
     borderopacity="1.0"
     inkscape:pageopacity="0.0"
     inkscape:pageshadow="2"
     inkscape:zoom="0.98994949"
     inkscape:cx="439.93069"
     inkscape:cy="117.78809"
     inkscape:document-units="mm"
     inkscape:current-layer="layer1"
     showgrid="false"
     inkscape:window-width="3840"
     inkscape:window-height="2032"
     inkscape:window-x="0"
     inkscape:window-y="54"
     inkscape:window-maximized="1" />
  <metadata
     id="metadata7871">
    <rdf:RDF>
      <cc:Work
         rdf:about="">
        <dc:format>image/svg+xml</dc:format>
        <dc:type
           rdf:resource="http://purl.org/dc/dcmitype/StillImage" />
        <dc:title></dc:title>
      </cc:Work>
    </rdf:RDF>
  </metadata>
  <g
     inkscape:label="Layer 1"
     inkscape:groupmode="layer"
     id="layer1"
     transform="translate(-1.8708866,-154.0108)">
    <rect
       style="opacity:1;fill:#e66969;fill-opacity:1;fill-rule:nonzero;stroke:none;stroke-width:0.5;stroke-linecap:round;stroke-linejoin:round;stroke-miterlimit:11.60000038;stroke-dasharray:2.99999996, 0.99999999;stroke-dashoffset:0;stroke-opacity:0.98300967"
       id="rect8419"
       width="65.748306"
       height="62.541069"
       x="1.8708866"
       y="154.0108"
       rx="4.99999"
       ry="4.99999" />
    <rect
       ry="4.99999"
       rx="4.99999"
       y="154.0108"
       x="80.359047"
       height="62.541069"
       width="65.748306"
       id="rect8421"
       style="opacity:1;fill:#e66969;fill-opacity:1;fill-rule:nonzero;stroke:none;stroke-width:0.5;stroke-linecap:round;stroke-linejoin:round;stroke-miterlimit:11.60000038;stroke-dasharray:2.99999996, 0.99999999;stroke-dashoffset:0;stroke-opacity:0.98300967" />
    <rect
       style="opacity:1;fill:#e66969;fill-opacity:1;fill-rule:nonzero;stroke:none;stroke-width:0.5;stroke-linecap:round;stroke-linejoin:round;stroke-miterlimit:11.60000038;stroke-dasharray:2.99999996, 0.99999999;stroke-dashoffset:0;stroke-opacity:0.98300967"
       id="rect8423"
       width="65.748306"
       height="62.541069"
       x="158.84721"
       y="154.0108"
       rx="4.99999"
       ry="4.99999" />
    <rect
       ry="4.99999"
       rx="4.99999"
       y="154.0108"
       x="237.33534"
       height="62.541069"
       width="65.748306"
       id="rect8425"
       style="opacity:1;fill:#e66969;fill-opacity:1;fill-rule:nonzero;stroke:none;stroke-width:0.5;stroke-linecap:round;stroke-linejoin:round;stroke-miterlimit:11.60000038;stroke-dasharray:2.99999996, 0.99999999;stroke-dashoffset:0;stroke-opacity:0.98300967" />
    <g
       aria-label="Load"
       transform="matrix(0.26458333,0,0,0.26458333,16.912515,98.177368)"
       style="font-style:normal;font-variant:normal;font-weight:normal;font-stretch:normal;font-size:48px;line-height:1.25;font-family:FreeSans;-inkscape-font-specification:FreeSans;letter-spacing:0px;word-spacing:0px;fill:#000000;fill-opacity:1;stroke:none"
       id="flowRoot8427">
      <path
         d="m 22.446578,311.16386 v 31.056 h 17.28 v 3.936 h -21.744 v -34.992 z"
         style=""
         id="path10397" />
      <path
         d="m 53.934565,320.28386 q 5.424,0 8.4,3.6 3.024,3.552 3.024,10.08 0,6.192 -3.072,9.744 -3.024,3.552 -8.304,3.552 -5.376,0 -8.4,-3.552 -2.976,-3.6 -2.976,-9.936 0,-6.336 3.024,-9.888 3.024,-3.6 8.304,-3.6 z m 0.048,3.696 q -3.36,0 -5.28,2.64 -1.92,2.592 -1.92,7.152 0,4.56 1.92,7.2 1.92,2.592 5.28,2.592 3.312,0 5.232,-2.592 1.968,-2.64 1.968,-7.056 0,-4.656 -1.92,-7.296 -1.872,-2.64 -5.28,-2.64 z"
         style=""
         id="path10399" />
      <path
         d="m 69.342492,328.44386 q 0.288,-8.16 10.08,-8.16 4.656,0 7.056,1.776 2.4,1.728 2.4,5.088 v 14.784 q 0,1.968 2.16,1.968 0.432,0 0.864,-0.096 v 3.024 q -1.68,0.432 -2.736,0.432 -1.92,0 -2.928,-0.912 -0.96,-0.864 -1.2,-2.784 -4.032,3.696 -8.544,3.696 -3.792,0 -6.048,-2.016 -2.208,-2.016 -2.208,-5.424 0,-1.104 0.192,-2.016 0.24,-0.912 0.48,-1.584 0.288,-0.72 0.96,-1.296 0.672,-0.624 1.104,-1.008 0.48,-0.384 1.536,-0.72 1.104,-0.384 1.68,-0.528 0.576,-0.192 2.016,-0.432 1.44,-0.24 2.112,-0.336 0.672,-0.096 2.4,-0.336 2.352,-0.288 3.264,-0.912 0.912,-0.624 0.912,-1.872 v -1.056 q 0,-1.824 -1.488,-2.784 -1.44,-0.96 -4.128,-0.96 -2.784,0 -4.224,1.104 -1.44,1.056 -1.68,3.36 z m 8.016,15.312 q 3.312,0 5.424,-1.728 2.112,-1.776 2.112,-3.792 v -4.512 q -1.2,0.576 -3.648,0.96 -2.4,0.384 -4.176,0.672 -1.776,0.288 -3.216,1.392 -1.44,1.056 -1.44,2.976 0,1.92 1.296,2.976 1.296,1.056 3.648,1.056 z"
         style=""
         id="path10401" />
      <path
         d="m 116.81446,311.16386 v 34.992 h -3.552 v -3.312 q -1.632,2.352 -3.552,3.36 -1.872,1.056 -4.464,1.056 -5.088,0 -8.016003,-3.648 -2.928,-3.696 -2.928,-10.08 0,-6 2.928,-9.6 2.976003,-3.648 7.872003,-3.648 5.184,0 7.728,3.888 v -13.008 z m -11.04,12.864 q -3.264,0 -5.28,2.688 -2.016003,2.688 -2.016003,7.056 0,4.416 2.016003,7.104 2.016,2.64 5.328,2.64 3.168,0 5.088,-2.64 1.92,-2.64 1.92,-7.008 0,-4.512 -1.92,-7.152 -1.92,-2.688 -5.136,-2.688 z"
         style=""
         id="path10403" />
    </g>
    <g
       aria-label="Transform"
       transform="matrix(0.26458333,0,0,0.26458333,81.138617,98.196418)"
       style="font-style:normal;font-variant:normal;font-weight:normal;font-stretch:normal;font-size:48px;line-height:1.25;font-family:FreeSans;-inkscape-font-specification:FreeSans;letter-spacing:0px;word-spacing:0px;fill:#000000;fill-opacity:1;stroke:none"
       id="flowRoot8441">
      <path
         d="m 31.566578,315.09986 v 31.056 h -4.464 v -31.056 h -11.52 v -3.936 h 27.456 v 3.936 z"
         style=""
         id="path10378" />
      <path
         d="m 59.454577,324.50786 q -4.032,0.096 -6.048,1.872 -2.016,1.776 -2.016,6.72 v 13.056 h -4.032 v -25.152 h 3.696 v 4.56 q 1.728,-2.832 3.312,-4.032 1.632,-1.248 3.552,-1.248 0.528,0 1.536,0.144 z"
         style=""
         id="path10380" />
      <path
         d="m 62.95852,328.44386 q 0.288,-8.16 10.08,-8.16 4.656,0 7.056,1.776 2.4,1.728 2.4,5.088 v 14.784 q 0,1.968 2.16,1.968 0.432,0 0.864,-0.096 v 3.024 q -1.68,0.432 -2.736,0.432 -1.92,0 -2.928,-0.912 -0.96,-0.864 -1.2,-2.784 -4.032,3.696 -8.544,3.696 -3.792,0 -6.048,-2.016 -2.208,-2.016 -2.208,-5.424 0,-1.104 0.192,-2.016 0.24,-0.912 0.48,-1.584 0.288,-0.72 0.96,-1.296 0.672,-0.624 1.104,-1.008 0.48,-0.384 1.536,-0.72 1.104,-0.384 1.68,-0.528 0.576,-0.192 2.016,-0.432 1.44,-0.24 2.112,-0.336 0.672,-0.096 2.4,-0.336 2.352,-0.288 3.264,-0.912 0.912,-0.624 0.912,-1.872 v -1.056 q 0,-1.824 -1.488,-2.784 -1.44,-0.96 -4.128,-0.96 -2.784,0 -4.224,1.104 -1.44,1.056 -1.68,3.36 z m 8.016,15.312 q 3.312,0 5.424,-1.728 2.112,-1.776 2.112,-3.792 v -4.512 q -1.2,0.576 -3.648,0.96 -2.4,0.384 -4.176,0.672 -1.776,0.288 -3.216,1.392 -1.44,1.056 -1.44,2.976 0,1.92 1.296,2.976 1.296,1.056 3.648,1.056 z"
         style=""
         id="path10382" />
      <path
         d="m 89.358485,321.00386 h 3.696 v 4.224 q 1.68,-2.64 3.6,-3.792 1.968,-1.152 4.752005,-1.152 3.648,0 5.808,1.872 2.16,1.872 2.16,4.992 v 19.008 h -3.984 v -17.424 q 0,-2.256 -1.392,-3.6 -1.392,-1.344 -3.792,-1.344 -3.072005,0 -4.944005,2.352 -1.872,2.304 -1.872,6.144 v 13.872 h -4.032 z"
         style=""
         id="path10384" />
      <path
         d="m 118.11043,338.66786 q 0.288,2.256 1.536,3.6 1.296,1.296 4.608,1.296 2.64,0 4.224,-1.056 1.632,-1.104 1.632,-2.88 0,-1.392 -0.912,-2.208 -0.912,-0.816 -2.976,-1.296 l -3.744,-0.912 q -4.464,-1.056 -6.24,-2.64 -1.728,-1.632 -1.728,-4.608 0,-3.504 2.64,-5.568 2.64,-2.112 7.008,-2.112 4.368,0 6.72,2.016 2.352,2.016 2.4,5.712 h -4.224 q -0.144,-4.032 -5.04,-4.032 -2.448,0 -3.888,1.056 -1.44,1.008 -1.44,2.736 0,1.344 1.104,2.208 1.104,0.816 3.552,1.392 l 3.84,0.912 q 3.744,0.912 5.424,2.592 1.68,1.632 1.68,4.416 0,3.648 -2.832,5.808 -2.784,2.16 -7.536,2.16 -9.744,0 -10.032,-8.592 z"
         style=""
         id="path10386" />
      <path
         d="m 148.39833,321.00386 v 3.264 h -4.176 v 21.888 h -3.984 v -21.888 h -3.36 v -3.264 h 3.36 v -4.272 q 0,-2.688 1.536,-4.176 1.584,-1.536 4.368,-1.536 1.104,0 2.256,0.24 v 3.312 q -0.912,-0.048 -1.392,-0.048 -2.784,0 -2.784,2.544 v 3.936 z"
         style=""
         id="path10388" />
      <path
         d="m 162.12628,320.28386 q 5.424,0 8.4,3.6 3.024,3.552 3.024,10.08 0,6.192 -3.072,9.744 -3.024,3.552 -8.304,3.552 -5.376,0 -8.4,-3.552 -2.976,-3.6 -2.976,-9.936 0,-6.336 3.024,-9.888 3.024,-3.6 8.304,-3.6 z m 0.048,3.696 q -3.36,0 -5.28,2.64 -1.92,2.592 -1.92,7.152 0,4.56 1.92,7.2 1.92,2.592 5.28,2.592 3.312,0 5.232,-2.592 1.968,-2.64 1.968,-7.056 0,-4.656 -1.92,-7.296 -1.872,-2.64 -5.28,-2.64 z"
         style=""
         id="path10390" />
      <path
         d="m 189.9662,324.50786 q -4.032,0.096 -6.048,1.872 -2.016,1.776 -2.016,6.72 v 13.056 h -4.032 v -25.152 h 3.696 v 4.56 q 1.728,-2.832 3.312,-4.032 1.632,-1.248 3.552,-1.248 0.528,0 1.536,0.144 z"
         style=""
         id="path10392" />
      <path
         d="m 193.80615,321.00386 h 3.696 v 3.552 q 1.632,-2.256 3.408,-3.264 1.824,-1.008 4.32,-1.008 4.656,0 6.768,3.84 1.776,-2.112 3.504,-2.976 1.728,-0.864 4.224,-0.864 3.504,0 5.376,1.824 1.92,1.776 1.92,5.184 v 18.864 h -4.032 v -17.328 q 0,-2.4 -1.248,-3.696 -1.2,-1.344 -3.408,-1.344 -2.448,0 -4.176,1.92 -1.728,1.92 -1.728,4.656 v 15.792 h -4.032 v -17.328 q 0,-2.4 -1.248,-3.696 -1.2,-1.344 -3.408,-1.344 -2.448,0 -4.176,1.92 -1.728,1.92 -1.728,4.656 v 15.792 h -4.032 z"
         style=""
         id="path10394" />
    </g>
    <g
       aria-label="Model"
       transform="matrix(0.26458333,0,0,0.26458333,170.85991,98.177368)"
       style="font-style:normal;font-variant:normal;font-weight:normal;font-stretch:normal;font-size:48px;line-height:1.25;font-family:FreeSans;-inkscape-font-specification:FreeSans;letter-spacing:0px;word-spacing:0px;fill:#000000;fill-opacity:1;stroke:none"
       id="flowRoot8449">
      <path
         d="m 36.846578,346.15586 h -4.704 l -9.936,-29.328 v 29.328 h -4.224 v -34.992 h 6.192 l 10.368,30.48 10.176,-30.48 h 6.192 v 34.992 h -4.224 v -29.328 z"
         style=""
         id="path10367" />
      <path
         d="m 67.518519,320.28386 q 5.424,0 8.4,3.6 3.024,3.552 3.024,10.08 0,6.192 -3.072,9.744 -3.024,3.552 -8.304,3.552 -5.376,0 -8.4,-3.552 -2.976,-3.6 -2.976,-9.936 0,-6.336 3.024,-9.888 3.024,-3.6 8.304,-3.6 z m 0.048,3.696 q -3.36,0 -5.28,2.64 -1.92,2.592 -1.92,7.152 0,4.56 1.92,7.2 1.92,2.592 5.28,2.592 3.312,0 5.232,-2.592 1.968,-2.64 1.968,-7.056 0,-4.656 -1.92,-7.296 -1.872,-2.64 -5.28,-2.64 z"
         style=""
         id="path10369" />
      <path
         d="m 104.33445,311.16386 v 34.992 h -3.552 v -3.312 q -1.632004,2.352 -3.552004,3.36 -1.872,1.056 -4.464,1.056 -5.088,0 -8.016,-3.648 -2.928,-3.696 -2.928,-10.08 0,-6 2.928,-9.6 2.976,-3.648 7.872,-3.648 5.184,0 7.728004,3.888 v -13.008 z m -11.040004,12.864 q -3.264,0 -5.28,2.688 -2.016,2.688 -2.016,7.056 0,4.416 2.016,7.104 2.016,2.64 5.328,2.64 3.168,0 5.088,-2.64 1.920004,-2.64 1.920004,-7.008 0,-4.512 -1.920004,-7.152 -1.92,-2.688 -5.136,-2.688 z"
         style=""
         id="path10371" />
      <path
         d="m 131.35836,334.92386 h -18.528 q 0.096,3.936 2.016,6.288 1.968,2.352 5.376,2.352 4.896,0 6.576,-5.04 h 4.032 q -0.768,4.128 -3.6,6.432 -2.832,2.304 -7.152,2.304 -5.28,0 -8.352,-3.552 -3.072,-3.6 -3.072,-9.792 0,-6.192 3.12,-9.888 3.168,-3.744 8.4,-3.744 11.184,0 11.184,14.64 z m -18.432,-3.264 h 14.16 q 0,-3.264 -1.968,-5.472 -1.968,-2.208 -4.992,-2.208 -3.024,0 -4.992,2.112 -1.968,2.064 -2.208,5.568 z"
         style=""
         id="path10373" />
      <path
         d="m 139.71031,311.16386 v 34.992 h -4.032 v -34.992 z"
         style=""
         id="path10375" />
    </g>
    <g
       aria-label="Visualise"
       transform="matrix(0.26458333,0,0,0.26458333,241.78523,98.177368)"
       style="font-style:normal;font-variant:normal;font-weight:normal;font-stretch:normal;font-size:48px;line-height:1.25;font-family:FreeSans;-inkscape-font-specification:FreeSans;letter-spacing:0px;word-spacing:0px;fill:#000000;fill-opacity:1;stroke:none"
       id="flowRoot8457">
      <path
         d="m 32.238578,346.15586 h -4.8 l -12.576,-34.992 h 4.8 l 10.272,29.616 9.696,-29.616 h 4.752 z"
         style=""
         id="path10348" />
      <path
         d="m 52.302509,321.00386 v 25.152 h -3.984 v -25.152 z m 0,-9.84 v 5.04 h -4.032 v -5.04 z"
         style=""
         id="path10350" />
      <path
         d="m 61.614423,338.66786 q 0.288,2.256 1.536,3.6 1.296,1.296 4.608,1.296 2.64,0 4.224,-1.056 1.632,-1.104 1.632,-2.88 0,-1.392 -0.912,-2.208 -0.912,-0.816 -2.976,-1.296 l -3.744,-0.912 q -4.464,-1.056 -6.24,-2.64 -1.728,-1.632 -1.728,-4.608 0,-3.504 2.64,-5.568 2.64,-2.112 7.008,-2.112 4.368,0 6.72,2.016 2.352,2.016 2.4,5.712 h -4.224 q -0.144,-4.032 -5.04,-4.032 -2.448,0 -3.888,1.056 -1.44,1.008 -1.44,2.736 0,1.344 1.104,2.208 1.104,0.816 3.552,1.392 l 3.84,0.912 q 3.744,0.912 5.424,2.592 1.68,1.632 1.68,4.416 0,3.648 -2.832,5.808 -2.784,2.16 -7.536,2.16 -9.744,0 -10.032,-8.592 z"
         style=""
         id="path10352" />
      <path
         d="m 102.31833,346.15586 h -3.599997 v -3.504 q -1.776,2.496 -3.696,3.552 -1.92,1.056 -4.704,1.056 -3.648,0 -5.856,-1.872 -2.16,-1.872 -2.16,-4.992 v -19.392 h 3.984 v 17.808 q 0,2.256 1.392,3.6 1.392,1.344 3.792,1.344 3.12,0 4.992,-2.304 1.872,-2.352 1.872,-6.192 v -14.256 h 3.983997 z"
         style=""
         id="path10354" />
      <path
         d="m 107.74227,328.44386 q 0.288,-8.16 10.08,-8.16 4.656,0 7.056,1.776 2.4,1.728 2.4,5.088 v 14.784 q 0,1.968 2.16,1.968 0.432,0 0.864,-0.096 v 3.024 q -1.68,0.432 -2.736,0.432 -1.92,0 -2.928,-0.912 -0.96,-0.864 -1.2,-2.784 -4.032,3.696 -8.544,3.696 -3.792,0 -6.048,-2.016 -2.208,-2.016 -2.208,-5.424 0,-1.104 0.192,-2.016 0.24,-0.912 0.48,-1.584 0.288,-0.72 0.96,-1.296 0.672,-0.624 1.104,-1.008 0.48,-0.384 1.536,-0.72 1.104,-0.384 1.68,-0.528 0.576,-0.192 2.016,-0.432 1.44,-0.24 2.112,-0.336 0.672,-0.096 2.4,-0.336 2.352,-0.288 3.264,-0.912 0.912,-0.624 0.912,-1.872 v -1.056 q 0,-1.824 -1.488,-2.784 -1.44,-0.96 -4.128,-0.96 -2.784,0 -4.224,1.104 -1.44,1.056 -1.68,3.36 z m 8.016,15.312 q 3.312,0 5.424,-1.728 2.112,-1.776 2.112,-3.792 v -4.512 q -1.2,0.576 -3.648,0.96 -2.4,0.384 -4.176,0.672 -1.776,0.288 -3.216,1.392 -1.44,1.056 -1.44,2.976 0,1.92 1.296,2.976 1.296,1.056 3.648,1.056 z"
         style=""
         id="path10356" />
      <path
         d="m 138.17424,311.16386 v 34.992 h -4.032 v -34.992 z"
         style=""
         id="path10358" />
      <path
         d="m 148.73418,321.00386 v 25.152 h -3.984 v -25.152 z m 0,-9.84 v 5.04 h -4.032 v -5.04 z"
         style=""
         id="path10360" />
      <path
         d="m 158.04609,338.66786 q 0.288,2.256 1.536,3.6 1.296,1.296 4.608,1.296 2.64,0 4.224,-1.056 1.632,-1.104 1.632,-2.88 0,-1.392 -0.912,-2.208 -0.912,-0.816 -2.976,-1.296 l -3.744,-0.912 q -4.464,-1.056 -6.24,-2.64 -1.728,-1.632 -1.728,-4.608 0,-3.504 2.64,-5.568 2.64,-2.112 7.008,-2.112 4.368,0 6.72,2.016 2.352,2.016 2.4,5.712 h -4.224 q -0.144,-4.032 -5.04,-4.032 -2.448,0 -3.888,1.056 -1.44,1.008 -1.44,2.736 0,1.344 1.104,2.208 1.104,0.816 3.552,1.392 l 3.84,0.912 q 3.744,0.912 5.424,2.592 1.68,1.632 1.68,4.416 0,3.648 -2.832,5.808 -2.784,2.16 -7.536,2.16 -9.744,0 -10.032,-8.592 z"
         style=""
         id="path10362" />
      <path
         d="M 199.998,334.92386 H 181.47 q 0.096,3.936 2.016,6.288 1.968,2.352 5.376,2.352 4.896,0 6.576,-5.04 h 4.032 q -0.768,4.128 -3.6,6.432 -2.832,2.304 -7.152,2.304 -5.28,0 -8.352,-3.552 -3.072,-3.6 -3.072,-9.792 0,-6.192 3.12,-9.888 3.168,-3.744 8.4,-3.744 11.184,0 11.184,14.64 z m -18.432,-3.264 h 14.16 q 0,-3.264 -1.968,-5.472 -1.968,-2.208 -4.992,-2.208 -3.024,0 -4.992,2.112 -1.968,2.064 -2.208,5.568 z"
         style=""
         id="path10364" />
    </g>
    <path
       style="fill:none;stroke:#000000;stroke-width:0.76499999;stroke-linecap:butt;stroke-linejoin:miter;stroke-miterlimit:4;stroke-dasharray:none;stroke-opacity:1;marker-start:url(#Arrow1Lstart)"
       d="M 79.764793,185.57751 H 66.401316 v 0 0 0"
       id="path8465"
       inkscape:connector-curvature="0" />
    <path
       inkscape:connector-curvature="0"
       id="path9405"
       d="m 158.6093,185.57751 h -13.36347 v 0 0 0"
       style="fill:none;stroke:#000000;stroke-width:0.76499999;stroke-linecap:butt;stroke-linejoin:miter;stroke-miterlimit:4;stroke-dasharray:none;stroke-opacity:1;marker-start:url(#marker9409)" />
    <path
       style="fill:none;stroke:#000000;stroke-width:0.76499999;stroke-linecap:butt;stroke-linejoin:miter;stroke-miterlimit:4;stroke-dasharray:none;stroke-opacity:1;marker-start:url(#marker9835)"
       d="m 236.652,185.57751 h -13.36347 v 0 0 0"
       id="path9831"
       inkscape:connector-curvature="0" />
  </g>
</svg>
