<?xml version="1.0" encoding="UTF-8" standalone="no"?>
<!-- Created with Inkscape (http://www.inkscape.org/) -->

<svg
   xmlns:dc="http://purl.org/dc/elements/1.1/"
   xmlns:cc="http://creativecommons.org/ns#"
   xmlns:rdf="http://www.w3.org/1999/02/22-rdf-syntax-ns#"
   xmlns:svg="http://www.w3.org/2000/svg"
   xmlns="http://www.w3.org/2000/svg"
   xmlns:sodipodi="http://sodipodi.sourceforge.net/DTD/sodipodi-0.dtd"
   xmlns:inkscape="http://www.inkscape.org/namespaces/inkscape"
   width="84.608521mm"
   height="220.76462mm"
   viewBox="0 0 84.608521 220.76462"
   version="1.1"
   id="svg7874"
   inkscape:version="0.92.5 (2060ec1f9f, 2020-04-08)"
   sodipodi:docname="modules.svg">
  <defs
     id="defs7868">
    <marker
       inkscape:stockid="Arrow1Lstart"
       orient="auto"
       refY="0"
       refX="0"
       id="marker95813"
       style="overflow:visible"
       inkscape:isstock="true">
      <path
         id="path95811"
         d="M 0,0 5,-5 -12.5,0 5,5 Z"
         style="fill:#000000;fill-opacity:1;fill-rule:evenodd;stroke:#000000;stroke-width:1.00000003pt;stroke-opacity:1"
         transform="matrix(0.8,0,0,0.8,10,0)"
         inkscape:connector-curvature="0" />
    </marker>
    <marker
       inkscape:isstock="true"
       style="overflow:visible"
       id="marker77043"
       refX="0"
       refY="0"
       orient="auto"
       inkscape:stockid="Arrow1Lstart">
      <path
         transform="matrix(0.8,0,0,0.8,10,0)"
         style="fill:#000000;fill-opacity:1;fill-rule:evenodd;stroke:#000000;stroke-width:1.00000003pt;stroke-opacity:1"
         d="M 0,0 5,-5 -12.5,0 5,5 Z"
         id="path77041"
         inkscape:connector-curvature="0" />
    </marker>
    <marker
       inkscape:isstock="true"
       style="overflow:visible"
       id="marker37147"
       refX="0"
       refY="0"
       orient="auto"
       inkscape:stockid="Arrow1Lstart">
      <path
         transform="matrix(0.8,0,0,0.8,10,0)"
         style="fill:#000000;fill-opacity:1;fill-rule:evenodd;stroke:#000000;stroke-width:1.00000003pt;stroke-opacity:1"
         d="M 0,0 5,-5 -12.5,0 5,5 Z"
         id="path37145"
         inkscape:connector-curvature="0" />
    </marker>
    <marker
       inkscape:isstock="true"
       style="overflow:visible"
       id="marker1605"
       refX="0"
       refY="0"
       orient="auto"
       inkscape:stockid="Arrow1Lstart">
      <path
         transform="matrix(0.8,0,0,0.8,10,0)"
         style="fill:#000000;fill-opacity:1;fill-rule:evenodd;stroke:#000000;stroke-width:1.00000003pt;stroke-opacity:1"
         d="M 0,0 5,-5 -12.5,0 5,5 Z"
         id="path1603"
         inkscape:connector-curvature="0" />
    </marker>
    <marker
       inkscape:stockid="Arrow1Lend"
       orient="auto"
       refY="0"
       refX="0"
       id="marker1241"
       style="overflow:visible"
       inkscape:isstock="true">
      <path
         id="path939"
         d="M 0,0 5,-5 -12.5,0 5,5 Z"
         style="fill:#000000;fill-opacity:1;fill-rule:evenodd;stroke:#000000;stroke-width:1.00000003pt;stroke-opacity:1"
         transform="matrix(-0.8,0,0,-0.8,-10,0)"
         inkscape:connector-curvature="0" />
    </marker>
    <marker
       inkscape:stockid="Arrow2Lend"
       orient="auto"
       refY="0"
       refX="0"
       id="Arrow2Lend"
       style="overflow:visible"
       inkscape:isstock="true">
      <path
         id="path957"
         style="fill:#000000;fill-opacity:1;fill-rule:evenodd;stroke:#000000;stroke-width:0.625;stroke-linejoin:round;stroke-opacity:1"
         d="M 8.7185878,4.0337352 -2.2072895,0.01601326 8.7185884,-4.0017078 c -1.7454984,2.3720609 -1.7354408,5.6174519 -6e-7,8.035443 z"
         transform="matrix(-1.1,0,0,-1.1,-1.1,0)"
         inkscape:connector-curvature="0" />
    </marker>
    <marker
       inkscape:stockid="Arrow2Lstart"
       orient="auto"
       refY="0"
       refX="0"
       id="Arrow2Lstart"
       style="overflow:visible"
       inkscape:isstock="true">
      <path
         id="path954"
         style="fill:#000000;fill-opacity:1;fill-rule:evenodd;stroke:#000000;stroke-width:0.625;stroke-linejoin:round;stroke-opacity:1"
         d="M 8.7185878,4.0337352 -2.2072895,0.01601326 8.7185884,-4.0017078 c -1.7454984,2.3720609 -1.7354408,5.6174519 -6e-7,8.035443 z"
         transform="matrix(1.1,0,0,1.1,1.1,0)"
         inkscape:connector-curvature="0" />
    </marker>
    <marker
       inkscape:stockid="Arrow1Lstart"
       orient="auto"
       refY="0"
       refX="0"
       id="marker9835"
       style="overflow:visible"
       inkscape:isstock="true">
      <path
         id="path9833"
         d="M 0,0 5,-5 -12.5,0 5,5 Z"
         style="fill:#000000;fill-opacity:1;fill-rule:evenodd;stroke:#000000;stroke-width:1.00000003pt;stroke-opacity:1"
         transform="matrix(0.8,0,0,0.8,10,0)"
         inkscape:connector-curvature="0" />
    </marker>
    <marker
       inkscape:stockid="Arrow1Lend"
       orient="auto"
       refY="0"
       refX="0"
       id="Arrow1Lend"
       style="overflow:visible"
       inkscape:isstock="true">
      <path
         id="path8470"
         d="M 0,0 5,-5 -12.5,0 5,5 Z"
         style="fill:#000000;fill-opacity:1;fill-rule:evenodd;stroke:#000000;stroke-width:1.00000003pt;stroke-opacity:1"
         transform="matrix(-0.8,0,0,-0.8,-10,0)"
         inkscape:connector-curvature="0" />
    </marker>
  </defs>
  <sodipodi:namedview
     id="base"
     pagecolor="#ffffff"
     bordercolor="#666666"
     borderopacity="1.0"
     inkscape:pageopacity="0.0"
     inkscape:pageshadow="2"
     inkscape:zoom="0.98994949"
     inkscape:cx="746.579"
     inkscape:cy="384.46836"
     inkscape:document-units="mm"
     inkscape:current-layer="layer1"
     showgrid="false"
     inkscape:window-width="3840"
     inkscape:window-height="2032"
     inkscape:window-x="0"
     inkscape:window-y="54"
     inkscape:window-maximized="1" />
  <metadata
     id="metadata7871">
    <rdf:RDF>
      <cc:Work
         rdf:about="">
        <dc:format>image/svg+xml</dc:format>
        <dc:type
           rdf:resource="http://purl.org/dc/dcmitype/StillImage" />
        <dc:title></dc:title>
      </cc:Work>
    </rdf:RDF>
  </metadata>
  <g
     inkscape:label="Layer 1"
     inkscape:groupmode="layer"
     id="layer1"
     transform="translate(79.263145,-66.346413)">
    <rect
       style="opacity:1;fill:#e66969;fill-opacity:1;fill-rule:nonzero;stroke:none;stroke-width:0.5;stroke-linecap:round;stroke-linejoin:round;stroke-miterlimit:11.60000038;stroke-dasharray:3, 0.99999999;stroke-dashoffset:0;stroke-opacity:0.98300967"
       id="rect989"
       width="84.608521"
       height="36.883194"
       x="-79.263145"
       y="158.28711"
       rx="4.99999"
       ry="4.99999" />
    <rect
       ry="4.99999"
       rx="4.99999"
       y="204.25748"
       x="-79.263145"
       height="36.883194"
       width="84.608521"
       id="rect991"
       style="opacity:1;fill:#e66969;fill-opacity:1;fill-rule:nonzero;stroke:none;stroke-width:0.5;stroke-linecap:round;stroke-linejoin:round;stroke-miterlimit:11.60000038;stroke-dasharray:3, 0.99999999;stroke-dashoffset:0;stroke-opacity:0.98300967" />
    <rect
       style="opacity:1;fill:#e66969;fill-opacity:1;fill-rule:nonzero;stroke:none;stroke-width:0.5;stroke-linecap:round;stroke-linejoin:round;stroke-miterlimit:11.60000038;stroke-dasharray:3, 0.99999999;stroke-dashoffset:0;stroke-opacity:0.98300967"
       id="rect993"
       width="84.608521"
       height="36.883194"
       x="-79.263145"
       y="250.22783"
       rx="4.99999"
       ry="4.99999" />
    <rect
       ry="4.99999"
       rx="4.99999"
       y="112.31676"
       x="-79.263145"
       height="36.883194"
       width="84.608521"
       id="rect987"
       style="opacity:1;fill:#e66969;fill-opacity:1;fill-rule:nonzero;stroke:none;stroke-width:0.5;stroke-linecap:round;stroke-linejoin:round;stroke-miterlimit:11.60000038;stroke-dasharray:3, 0.99999999;stroke-dashoffset:0;stroke-opacity:0.98300967" />
    <rect
       style="opacity:1;fill:#e66969;fill-opacity:1;fill-rule:nonzero;stroke:none;stroke-width:0.5;stroke-linecap:round;stroke-linejoin:round;stroke-miterlimit:11.60000038;stroke-dasharray:3, 0.99999999;stroke-dashoffset:0;stroke-opacity:0.98300967"
       id="rect8419"
       width="84.608521"
       height="36.883194"
       x="-79.263145"
       y="66.346413"
       rx="4.99999"
       ry="4.99999" />
    <g
       aria-label="import()"
       transform="matrix(0.26458333,0,0,0.26458333,-66.081138,43.331626)"
       style="font-style:normal;font-weight:normal;font-size:40px;line-height:1.25;font-family:sans-serif;letter-spacing:0px;word-spacing:0px;fill:#000000;fill-opacity:1;stroke:none"
       id="flowRoot939">
      <path
         d="m 21.162109,145.8457 h 9.199219 v 19.08203 h 7.128906 v 2.79297 H 19.638672 v -2.79297 h 7.128906 v -16.28906 h -5.605469 z m 5.605469,-8.51562 h 3.59375 v 4.55078 h -3.59375 z"
         style="font-style:normal;font-variant:normal;font-weight:normal;font-stretch:normal;font-family:monospace;-inkscape-font-specification:monospace"
         id="path1059" />
      <path
         d="m 53.447266,148.07227 q 0.664062,-1.40625 1.679687,-2.07032 1.035156,-0.68359 2.480469,-0.68359 2.636719,0 3.710937,2.05078 1.09375,2.03125 1.09375,7.67578 v 12.67578 h -3.28125 v -12.51953 q 0,-4.6289 -0.527343,-5.74219 -0.507813,-1.13281 -1.875,-1.13281 -1.5625,0 -2.148438,1.21094 -0.566406,1.19141 -0.566406,5.66406 v 12.51953 h -3.28125 v -12.51953 q 0,-4.6875 -0.566406,-5.78125 -0.546875,-1.09375 -1.992188,-1.09375 -1.425781,0 -1.992187,1.21094 -0.546875,1.19141 -0.546875,5.66406 v 12.51953 h -3.261719 v -21.875 h 3.261719 v 1.875 q 0.644531,-1.17187 1.601562,-1.77734 0.976563,-0.625 2.207031,-0.625 1.484375,0 2.460938,0.68359 0.996094,0.6836 1.542969,2.07032 z"
         style="font-style:normal;font-variant:normal;font-weight:normal;font-stretch:normal;font-family:monospace;-inkscape-font-specification:monospace"
         id="path1061" />
      <path
         d="m 71.650391,164.9668 v 11.07422 H 68.037109 V 145.8457 h 3.613282 v 2.79297 q 0.898437,-1.62109 2.382812,-2.46094 1.503906,-0.85937 3.457031,-0.85937 3.964844,0 6.210938,3.06641 2.265625,3.0664 2.265625,8.49609 0,5.33203 -2.265625,8.37891 -2.265625,3.02734 -6.210938,3.02734 -1.992187,0 -3.496093,-0.83984 -1.484375,-0.85938 -2.34375,-2.48047 z m 10.546875,-8.16407 q 0,-4.17968 -1.328125,-6.30859 -1.308594,-2.12891 -3.90625,-2.12891 -2.617188,0 -3.964844,2.14844 -1.347656,2.12891 -1.347656,6.28906 0,4.14063 1.347656,6.28907 1.347656,2.14843 3.964844,2.14843 2.597656,0 3.90625,-2.1289 1.328125,-2.12891 1.328125,-6.3086 z"
         style="font-style:normal;font-variant:normal;font-weight:normal;font-stretch:normal;font-family:monospace;-inkscape-font-specification:monospace"
         id="path1063" />
      <path
         d="m 100.43945,148.36523 q -2.734372,0 -4.140622,2.12891 -1.40625,2.12891 -1.40625,6.30859 0,4.16016 1.40625,6.3086 1.40625,2.1289 4.140622,2.1289 2.75391,0 4.16016,-2.1289 1.40625,-2.14844 1.40625,-6.3086 0,-4.17968 -1.40625,-6.30859 -1.40625,-2.12891 -4.16016,-2.12891 z m 0,-3.04687 q 4.55078,0 6.95313,2.94922 2.42187,2.94922 2.42187,8.53515 0,5.60547 -2.40234,8.55469 -2.40234,2.92969 -6.97266,2.92969 -4.550778,0 -6.953122,-2.92969 -2.402344,-2.94922 -2.402344,-8.55469 0,-5.58593 2.402344,-8.53515 2.402344,-2.94922 6.953122,-2.94922 z"
         style="font-style:normal;font-variant:normal;font-weight:normal;font-stretch:normal;font-family:monospace;-inkscape-font-specification:monospace"
         id="path1065" />
      <path
         d="m 135.04883,150.35742 q -1.15235,-0.89844 -2.34375,-1.30859 -1.19141,-0.41016 -2.61719,-0.41016 -3.35937,0 -5.13672,2.10938 -1.77734,2.10937 -1.77734,6.09375 v 10.8789 h -3.61328 v -21.875 h 3.61328 v 4.27735 q 0.89844,-2.32422 2.7539,-3.55469 1.875,-1.25 4.4336,-1.25 1.32812,0 2.48047,0.33203 1.15234,0.33203 2.20703,1.03516 z"
         style="font-style:normal;font-variant:normal;font-weight:normal;font-stretch:normal;font-family:monospace;-inkscape-font-specification:monospace"
         id="path1067" />
      <path
         d="m 148.56445,139.63477 v 6.21093 h 8.16407 v 2.79297 h -8.16407 v 11.875 q 0,2.42188 0.91797,3.37891 0.91797,0.95703 3.20313,0.95703 h 4.04297 v 2.87109 h -4.39454 q -4.04296,0 -5.70312,-1.62109 -1.66016,-1.62109 -1.66016,-5.58594 v -11.875 h -5.83984 v -2.79297 h 5.83984 v -6.21093 z"
         style="font-style:normal;font-variant:normal;font-weight:normal;font-stretch:normal;font-family:monospace;-inkscape-font-specification:monospace"
         id="path1069" />
      <path
         d="m 177.93945,137.36914 q -2.59765,4.45313 -3.88672,8.88672 -1.26953,4.41406 -1.26953,8.90625 0,4.47266 1.26953,8.90625 1.28907,4.43359 3.88672,8.92578 h -3.125 q -2.94922,-4.64844 -4.39453,-9.04297 -1.44531,-4.41406 -1.44531,-8.78906 0,-4.35547 1.44531,-8.76953 1.44531,-4.41406 4.39453,-9.02344 z"
         style="font-style:normal;font-variant:normal;font-weight:normal;font-stretch:normal;font-family:monospace;-inkscape-font-specification:monospace"
         id="path1071" />
      <path
         d="m 191.5332,137.36914 h 3.125 q 2.94922,4.60938 4.39453,9.02344 1.44532,4.41406 1.44532,8.76953 0,4.39453 -1.44532,8.80859 -1.44531,4.41407 -4.39453,9.02344 h -3.125 q 2.59766,-4.53125 3.86719,-8.96484 1.28906,-4.4336 1.28906,-8.86719 0,-4.45313 -1.28906,-8.88672 -1.26953,-4.43359 -3.86719,-8.90625 z"
         style="font-style:normal;font-variant:normal;font-weight:normal;font-stretch:normal;font-family:monospace;-inkscape-font-specification:monospace"
         id="path1073" />
    </g>
    <g
       aria-label="tidy()"
       transform="matrix(0.26458333,0,0,0.26458333,-59.587995,89.30197)"
       style="font-style:normal;font-weight:normal;font-size:40px;line-height:1.25;font-family:sans-serif;letter-spacing:0px;word-spacing:0px;fill:#000000;fill-opacity:1;stroke:none"
       id="flowRoot953">
      <path
         d="m 28.154297,139.63477 v 6.21093 h 8.164062 v 2.79297 h -8.164062 v 11.875 q 0,2.42188 0.917969,3.37891 0.917968,0.95703 3.203125,0.95703 h 4.042968 v 2.87109 h -4.394531 q -4.042969,0 -5.703125,-1.62109 -1.660156,-1.62109 -1.660156,-5.58594 v -11.875 h -5.839844 v -2.79297 h 5.839844 v -6.21093 z"
         style="font-style:normal;font-variant:normal;font-weight:normal;font-stretch:normal;font-family:monospace;-inkscape-font-specification:monospace"
         id="path1046" />
      <path
         d="m 45.244141,145.8457 h 9.199218 v 19.08203 h 7.128907 v 2.79297 H 43.720703 v -2.79297 h 7.128906 v -16.28906 h -5.605468 z m 5.605468,-8.51562 h 3.59375 v 4.55078 h -3.59375 z"
         style="font-style:normal;font-variant:normal;font-weight:normal;font-stretch:normal;font-family:monospace;-inkscape-font-specification:monospace"
         id="path1048" />
      <path
         d="m 81.083984,148.63867 v -11.30859 h 3.59375 v 30.39062 h -3.59375 v -2.7539 q -0.898437,1.62109 -2.402343,2.48047 -1.484375,0.83984 -3.4375,0.83984 -3.964844,0 -6.25,-3.06641 -2.265625,-3.08593 -2.265625,-8.49609 0,-5.33203 2.285156,-8.35938 2.285156,-3.04687 6.230469,-3.04687 1.972656,0 3.476562,0.85937 1.503906,0.83985 2.363281,2.46094 z m -10.566406,8.16406 q 0,4.17969 1.328125,6.3086 1.328125,2.1289 3.925781,2.1289 2.597657,0 3.945313,-2.14843 1.367187,-2.14844 1.367187,-6.28907 0,-4.16015 -1.367187,-6.28906 -1.347656,-2.14844 -3.945313,-2.14844 -2.597656,0 -3.925781,2.12891 -1.328125,2.12891 -1.328125,6.30859 z"
         style="font-style:normal;font-variant:normal;font-weight:normal;font-stretch:normal;font-family:monospace;-inkscape-font-specification:monospace"
         id="path1050" />
      <path
         d="m 105.16602,160.68945 q -0.89844,2.28516 -2.28516,6.01563 -1.93359,5.15625 -2.59766,6.28906 -0.898434,1.52344 -2.246091,2.28516 -1.347656,0.76172 -3.144531,0.76172 h -2.890625 v -3.00782 h 2.128906 q 1.582032,0 2.480469,-0.91797 0.898438,-0.91796 2.285156,-4.74609 L 90.439453,145.8457 h 3.808594 l 6.484373,17.10938 6.38672,-17.10938 h 3.80859 z"
         style="font-style:normal;font-variant:normal;font-weight:normal;font-stretch:normal;font-family:monospace;-inkscape-font-specification:monospace"
         id="path1052" />
      <path
         d="m 129.77539,137.36914 q -2.59766,4.45313 -3.88672,8.88672 -1.26953,4.41406 -1.26953,8.90625 0,4.47266 1.26953,8.90625 1.28906,4.43359 3.88672,8.92578 h -3.125 q -2.94922,-4.64844 -4.39453,-9.04297 -1.44531,-4.41406 -1.44531,-8.78906 0,-4.35547 1.44531,-8.76953 1.44531,-4.41406 4.39453,-9.02344 z"
         style="font-style:normal;font-variant:normal;font-weight:normal;font-stretch:normal;font-family:monospace;-inkscape-font-specification:monospace"
         id="path1054" />
      <path
         d="m 143.36914,137.36914 h 3.125 q 2.94922,4.60938 4.39453,9.02344 1.44531,4.41406 1.44531,8.76953 0,4.39453 -1.44531,8.80859 -1.44531,4.41407 -4.39453,9.02344 h -3.125 q 2.59766,-4.53125 3.86719,-8.96484 1.28906,-4.4336 1.28906,-8.86719 0,-4.45313 -1.28906,-8.88672 -1.26953,-4.43359 -3.86719,-8.90625 z"
         style="font-style:normal;font-variant:normal;font-weight:normal;font-stretch:normal;font-family:monospace;-inkscape-font-specification:monospace"
         id="path1056" />
    </g>
    <g
       aria-label="transform()"
       transform="matrix(0.26458333,0,0,0.26458333,-75.517255,135.6754)"
       style="font-style:normal;font-weight:normal;font-size:40px;line-height:1.25;font-family:sans-serif;letter-spacing:0px;word-spacing:0px;fill:#000000;fill-opacity:1;stroke:none"
       id="flowRoot965">
      <path
         d="m 28.154297,139.63477 v 6.21093 h 8.164062 v 2.79297 h -8.164062 v 11.875 q 0,2.42188 0.917969,3.37891 0.917968,0.95703 3.203125,0.95703 h 4.042968 v 2.87109 h -4.394531 q -4.042969,0 -5.703125,-1.62109 -1.660156,-1.62109 -1.660156,-5.58594 v -11.875 h -5.839844 v -2.79297 h 5.839844 v -6.21093 z"
         style="font-style:normal;font-variant:normal;font-weight:normal;font-stretch:normal;font-family:monospace;-inkscape-font-specification:monospace"
         id="path1023" />
      <path
         d="m 62.802734,150.35742 q -1.152343,-0.89844 -2.34375,-1.30859 -1.191406,-0.41016 -2.617187,-0.41016 -3.359375,0 -5.136719,2.10938 -1.777344,2.10937 -1.777344,6.09375 v 10.8789 h -3.613281 v -21.875 h 3.613281 v 4.27735 q 0.898438,-2.32422 2.753907,-3.55469 1.875,-1.25 4.433593,-1.25 1.328125,0 2.480469,0.33203 1.152344,0.33203 2.207031,1.03516 z"
         style="font-style:normal;font-variant:normal;font-weight:normal;font-stretch:normal;font-family:monospace;-inkscape-font-specification:monospace"
         id="path1025" />
      <path
         d="m 78.037109,156.72461 h -1.191406 q -3.144531,0 -4.746094,1.11328 -1.582031,1.09375 -1.582031,3.28125 0,1.97266 1.191406,3.06641 1.191407,1.09375 3.300782,1.09375 2.96875,0 4.667968,-2.05078 1.699219,-2.07032 1.71875,-5.70313 v -0.80078 z m 6.972657,-1.48438 v 12.48047 h -3.613282 v -3.24218 q -1.152343,1.95312 -2.910156,2.89062 -1.738281,0.91797 -4.238281,0.91797 -3.339844,0 -5.332031,-1.875 -1.992188,-1.89453 -1.992188,-5.05859 0,-3.65235 2.441406,-5.54688 2.460938,-1.89453 7.207032,-1.89453 h 4.824218 v -0.56641 q -0.01953,-2.61718 -1.328125,-3.78906 -1.308593,-1.19141 -4.179687,-1.19141 -1.835938,0 -3.710938,0.52735 -1.875,0.52734 -3.652343,1.54297 v -3.59375 q 1.992187,-0.76172 3.808593,-1.13282 1.835938,-0.39062 3.554688,-0.39062 2.714844,0 4.628906,0.80078 1.933594,0.80078 3.125,2.40234 0.742188,0.97657 1.054688,2.42188 0.3125,1.42578 0.3125,4.29687 z"
         style="font-style:normal;font-variant:normal;font-weight:normal;font-stretch:normal;font-family:monospace;-inkscape-font-specification:monospace"
         id="path1027" />
      <path
         d="m 108.93555,154.16602 v 13.55468 h -3.61328 v -13.55468 q 0,-2.94922 -1.03516,-4.33594 -1.03516,-1.38672 -3.24219,-1.38672 -2.519529,0 -3.886717,1.79687 -1.347656,1.77735 -1.347656,5.11719 v 12.36328 h -3.59375 v -21.875 h 3.59375 v 3.28125 q 0.957031,-1.875 2.597656,-2.83203 1.640627,-0.97656 3.886717,-0.97656 3.33985,0 4.98047,2.20703 1.66016,2.1875 1.66016,6.64063 z"
         style="font-style:normal;font-variant:normal;font-weight:normal;font-stretch:normal;font-family:monospace;-inkscape-font-specification:monospace"
         id="path1029" />
      <path
         d="m 131.49414,146.60742 v 3.51563 q -1.54297,-0.89844 -3.10547,-1.34766 -1.5625,-0.44922 -3.18359,-0.44922 -2.44141,0 -3.65235,0.80078 -1.1914,0.78125 -1.1914,2.40235 0,1.46484 0.89844,2.1875 0.89843,0.72265 4.47265,1.40625 l 1.44531,0.27343 q 2.67579,0.50782 4.04297,2.03125 1.38672,1.52344 1.38672,3.96485 0,3.24219 -2.30469,5.07812 -2.30468,1.81641 -6.40625,1.81641 -1.62109,0 -3.39843,-0.35156 -1.77735,-0.33203 -3.84766,-1.01563 v -3.71094 q 2.01172,1.03516 3.84766,1.5625 1.83593,0.50782 3.47656,0.50782 2.38281,0 3.69141,-0.95703 1.30859,-0.97657 1.30859,-2.71485 0,-2.5 -4.78516,-3.45703 l -0.15625,-0.0391 -1.34765,-0.27344 q -3.10547,-0.60547 -4.53125,-2.03125 -1.42578,-1.44531 -1.42578,-3.92578 0,-3.14453 2.1289,-4.84375 2.12891,-1.71875 6.07422,-1.71875 1.75781,0 3.37891,0.33203 1.62109,0.3125 3.18359,0.95703 z"
         style="font-style:normal;font-variant:normal;font-weight:normal;font-stretch:normal;font-family:monospace;-inkscape-font-specification:monospace"
         id="path1031" />
      <path
         d="m 157.33398,137.33008 v 2.98828 h -4.08203 q -1.93359,0 -2.69531,0.80078 -0.74219,0.78125 -0.74219,2.79297 v 1.93359 h 7.51953 v 2.79297 h -7.51953 v 19.08203 h -3.59375 v -19.08203 h -5.83984 v -2.79297 h 5.83984 v -1.52343 q 0,-3.59375 1.64063,-5.29297 1.66015,-1.69922 5.15625,-1.69922 z"
         style="font-style:normal;font-variant:normal;font-weight:normal;font-stretch:normal;font-family:monospace;-inkscape-font-specification:monospace"
         id="path1033" />
      <path
         d="m 172.68555,148.36523 q -2.73438,0 -4.14063,2.12891 -1.40625,2.12891 -1.40625,6.30859 0,4.16016 1.40625,6.3086 1.40625,2.1289 4.14063,2.1289 2.7539,0 4.16015,-2.1289 1.40625,-2.14844 1.40625,-6.3086 0,-4.17968 -1.40625,-6.30859 -1.40625,-2.12891 -4.16015,-2.12891 z m 0,-3.04687 q 4.55078,0 6.95312,2.94922 2.42188,2.94922 2.42188,8.53515 0,5.60547 -2.40235,8.55469 -2.40234,2.92969 -6.97265,2.92969 -4.55078,0 -6.95313,-2.92969 -2.40234,-2.94922 -2.40234,-8.55469 0,-5.58593 2.40234,-8.53515 2.40235,-2.94922 6.95313,-2.94922 z"
         style="font-style:normal;font-variant:normal;font-weight:normal;font-stretch:normal;font-family:monospace;-inkscape-font-specification:monospace"
         id="path1035" />
      <path
         d="m 207.29492,150.35742 q -1.15234,-0.89844 -2.34375,-1.30859 -1.1914,-0.41016 -2.61719,-0.41016 -3.35937,0 -5.13671,2.10938 -1.77735,2.10937 -1.77735,6.09375 v 10.8789 h -3.61328 v -21.875 h 3.61328 v 4.27735 q 0.89844,-2.32422 2.75391,-3.55469 1.875,-1.25 4.43359,-1.25 1.32813,0 2.48047,0.33203 1.15234,0.33203 2.20703,1.03516 z"
         style="font-style:normal;font-variant:normal;font-weight:normal;font-stretch:normal;font-family:monospace;-inkscape-font-specification:monospace"
         id="path1037" />
      <path
         d="m 222.02148,148.07227 q 0.66407,-1.40625 1.67969,-2.07032 1.03516,-0.68359 2.48047,-0.68359 2.63672,0 3.71094,2.05078 1.09375,2.03125 1.09375,7.67578 v 12.67578 h -3.28125 v -12.51953 q 0,-4.6289 -0.52735,-5.74219 -0.50781,-1.13281 -1.875,-1.13281 -1.5625,0 -2.14843,1.21094 -0.56641,1.19141 -0.56641,5.66406 v 12.51953 h -3.28125 v -12.51953 q 0,-4.6875 -0.56641,-5.78125 -0.54687,-1.09375 -1.99218,-1.09375 -1.42578,0 -1.99219,1.21094 -0.54688,1.19141 -0.54688,5.66406 v 12.51953 h -3.26171 v -21.875 h 3.26171 v 1.875 q 0.64454,-1.17187 1.60157,-1.77734 0.97656,-0.625 2.20703,-0.625 1.48437,0 2.46094,0.68359 0.99609,0.6836 1.54296,2.07032 z"
         style="font-style:normal;font-variant:normal;font-weight:normal;font-stretch:normal;font-family:monospace;-inkscape-font-specification:monospace"
         id="path1039" />
      <path
         d="m 250.18555,137.36914 q -2.59766,4.45313 -3.88672,8.88672 -1.26953,4.41406 -1.26953,8.90625 0,4.47266 1.26953,8.90625 1.28906,4.43359 3.88672,8.92578 h -3.125 q -2.94922,-4.64844 -4.39453,-9.04297 -1.44532,-4.41406 -1.44532,-8.78906 0,-4.35547 1.44532,-8.76953 1.44531,-4.41406 4.39453,-9.02344 z"
         style="font-style:normal;font-variant:normal;font-weight:normal;font-stretch:normal;font-family:monospace;-inkscape-font-specification:monospace"
         id="path1041" />
      <path
         d="m 263.7793,137.36914 h 3.125 q 2.94922,4.60938 4.39453,9.02344 1.44531,4.41406 1.44531,8.76953 0,4.39453 -1.44531,8.80859 -1.44531,4.41407 -4.39453,9.02344 h -3.125 q 2.59765,-4.53125 3.86718,-8.96484 1.28907,-4.4336 1.28907,-8.86719 0,-4.45313 -1.28907,-8.88672 -1.26953,-4.43359 -3.86718,-8.90625 z"
         style="font-style:normal;font-variant:normal;font-weight:normal;font-stretch:normal;font-family:monospace;-inkscape-font-specification:monospace"
         id="path1043" />
    </g>
    <g
       aria-label="model()"
       transform="matrix(0.26458333,0,0,0.26458333,-62.717003,181.67419)"
       style="font-style:normal;font-weight:normal;font-size:40px;line-height:1.25;font-family:sans-serif;letter-spacing:0px;word-spacing:0px;fill:#000000;fill-opacity:1;stroke:none"
       id="flowRoot975">
      <path
         d="m 29.365234,148.07227 q 0.664063,-1.40625 1.679688,-2.07032 1.035156,-0.68359 2.480469,-0.68359 2.636718,0 3.710937,2.05078 1.09375,2.03125 1.09375,7.67578 v 12.67578 h -3.28125 v -12.51953 q 0,-4.6289 -0.527344,-5.74219 -0.507812,-1.13281 -1.875,-1.13281 -1.5625,0 -2.148437,1.21094 -0.566406,1.19141 -0.566406,5.66406 v 12.51953 h -3.28125 v -12.51953 q 0,-4.6875 -0.566407,-5.78125 -0.546875,-1.09375 -1.992187,-1.09375 -1.425781,0 -1.992188,1.21094 -0.546875,1.19141 -0.546875,5.66406 v 12.51953 h -3.261718 v -21.875 h 3.261718 v 1.875 q 0.644532,-1.17187 1.601563,-1.77734 0.976562,-0.625 2.207031,-0.625 1.484375,0 2.460938,0.68359 0.996093,0.6836 1.542968,2.07032 z"
         style="font-style:normal;font-variant:normal;font-weight:normal;font-stretch:normal;font-family:monospace;-inkscape-font-specification:monospace"
         id="path1008" />
      <path
         d="m 52.275391,148.36523 q -2.734375,0 -4.140625,2.12891 -1.40625,2.12891 -1.40625,6.30859 0,4.16016 1.40625,6.3086 1.40625,2.1289 4.140625,2.1289 2.753906,0 4.160156,-2.1289 1.40625,-2.14844 1.40625,-6.3086 0,-4.17968 -1.40625,-6.30859 -1.40625,-2.12891 -4.160156,-2.12891 z m 0,-3.04687 q 4.550781,0 6.953125,2.94922 2.421875,2.94922 2.421875,8.53515 0,5.60547 -2.402344,8.55469 -2.402344,2.92969 -6.972656,2.92969 -4.550782,0 -6.953125,-2.92969 -2.402344,-2.94922 -2.402344,-8.55469 0,-5.58593 2.402344,-8.53515 2.402343,-2.94922 6.953125,-2.94922 z"
         style="font-style:normal;font-variant:normal;font-weight:normal;font-stretch:normal;font-family:monospace;-inkscape-font-specification:monospace"
         id="path1010" />
      <path
         d="m 81.083984,148.63867 v -11.30859 h 3.59375 v 30.39062 h -3.59375 v -2.7539 q -0.898437,1.62109 -2.402343,2.48047 -1.484375,0.83984 -3.4375,0.83984 -3.964844,0 -6.25,-3.06641 -2.265625,-3.08593 -2.265625,-8.49609 0,-5.33203 2.285156,-8.35938 2.285156,-3.04687 6.230469,-3.04687 1.972656,0 3.476562,0.85937 1.503906,0.83985 2.363281,2.46094 z m -10.566406,8.16406 q 0,4.17969 1.328125,6.3086 1.328125,2.1289 3.925781,2.1289 2.597657,0 3.945313,-2.14843 1.367187,-2.14844 1.367187,-6.28907 0,-4.16015 -1.367187,-6.28906 -1.347656,-2.14844 -3.945313,-2.14844 -2.597656,0 -3.925781,2.12891 -1.328125,2.12891 -1.328125,6.30859 z"
         style="font-style:normal;font-variant:normal;font-weight:normal;font-stretch:normal;font-family:monospace;-inkscape-font-specification:monospace"
         id="path1012" />
      <path
         d="m 110.12695,155.88477 v 1.75781 H 94.560547 v 0.11719 q 0,3.57421 1.855469,5.52734 1.875,1.95312 5.273434,1.95312 1.71875,0 3.59375,-0.54687 1.875,-0.54688 4.00391,-1.66016 v 3.57422 q -2.05078,0.83985 -3.96484,1.25 -1.89454,0.42969 -3.67188,0.42969 -5.097656,0 -7.968749,-3.04688 -2.871094,-3.0664 -2.871094,-8.4375 0,-5.23437 2.8125,-8.35937 2.8125,-3.125 7.500003,-3.125 4.17968,0 6.58203,2.83203 2.42187,2.83203 2.42187,7.73438 z m -3.59375,-1.05469 q -0.0781,-3.16406 -1.5039,-4.80469 -1.40625,-1.66016 -4.0625,-1.66016 -2.597659,0 -4.277347,1.71875 -1.679687,1.71875 -1.992187,4.76563 z"
         style="font-style:normal;font-variant:normal;font-weight:normal;font-stretch:normal;font-family:monospace;-inkscape-font-specification:monospace"
         id="path1014" />
      <path
         d="m 124.9707,159.79102 q 0,2.42187 0.87891,3.65234 0.89844,1.23047 2.63672,1.23047 h 4.19922 v 3.04687 h -4.55078 q -3.22266,0 -5,-2.07031 -1.75782,-2.07031 -1.75782,-5.85937 v -19.86329 h -5.76172 v -2.8125 h 9.35547 z"
         style="font-style:normal;font-variant:normal;font-weight:normal;font-stretch:normal;font-family:monospace;-inkscape-font-specification:monospace"
         id="path1016" />
      <path
         d="m 153.85742,137.36914 q -2.59765,4.45313 -3.88672,8.88672 -1.26953,4.41406 -1.26953,8.90625 0,4.47266 1.26953,8.90625 1.28907,4.43359 3.88672,8.92578 h -3.125 q -2.94922,-4.64844 -4.39453,-9.04297 -1.44531,-4.41406 -1.44531,-8.78906 0,-4.35547 1.44531,-8.76953 1.44531,-4.41406 4.39453,-9.02344 z"
         style="font-style:normal;font-variant:normal;font-weight:normal;font-stretch:normal;font-family:monospace;-inkscape-font-specification:monospace"
         id="path1018" />
      <path
         d="m 167.45117,137.36914 h 3.125 q 2.94922,4.60938 4.39453,9.02344 1.44532,4.41406 1.44532,8.76953 0,4.39453 -1.44532,8.80859 -1.44531,4.41407 -4.39453,9.02344 h -3.125 q 2.59766,-4.53125 3.86719,-8.96484 1.28906,-4.4336 1.28906,-8.86719 0,-4.45313 -1.28906,-8.88672 -1.26953,-4.43359 -3.86719,-8.90625 z"
         style="font-style:normal;font-variant:normal;font-weight:normal;font-stretch:normal;font-family:monospace;-inkscape-font-specification:monospace"
         id="path1020" />
    </g>
    <g
       aria-label="plot()"
       transform="matrix(0.26458333,0,0,0.26458333,-59.74044,227.24146)"
       style="font-style:normal;font-weight:normal;font-size:40px;line-height:1.25;font-family:sans-serif;letter-spacing:0px;word-spacing:0px;fill:#000000;fill-opacity:1;stroke:none"
       id="flowRoot985">
      <path
         d="m 23.486328,164.9668 v 11.07422 H 19.873047 V 145.8457 h 3.613281 v 2.79297 q 0.898438,-1.62109 2.382813,-2.46094 1.503906,-0.85937 3.457031,-0.85937 3.964844,0 6.210937,3.06641 2.265625,3.0664 2.265625,8.49609 0,5.33203 -2.265625,8.37891 -2.265625,3.02734 -6.210937,3.02734 -1.992188,0 -3.496094,-0.83984 -1.484375,-0.85938 -2.34375,-2.48047 z m 10.546875,-8.16407 q 0,-4.17968 -1.328125,-6.30859 -1.308594,-2.12891 -3.90625,-2.12891 -2.617187,0 -3.964844,2.14844 -1.347656,2.12891 -1.347656,6.28906 0,4.14063 1.347656,6.28907 1.347657,2.14843 3.964844,2.14843 2.597656,0 3.90625,-2.1289 1.328125,-2.12891 1.328125,-6.3086 z"
         style="font-style:normal;font-variant:normal;font-weight:normal;font-stretch:normal;font-family:monospace;-inkscape-font-specification:monospace"
         id="path995" />
      <path
         d="m 52.724609,159.79102 q 0,2.42187 0.878907,3.65234 0.898437,1.23047 2.636718,1.23047 h 4.199219 v 3.04687 h -4.550781 q -3.222656,0 -5,-2.07031 -1.757813,-2.07031 -1.757813,-5.85937 v -19.86329 h -5.761718 v -2.8125 h 9.355468 z"
         style="font-style:normal;font-variant:normal;font-weight:normal;font-stretch:normal;font-family:monospace;-inkscape-font-specification:monospace"
         id="path997" />
      <path
         d="m 76.357422,148.36523 q -2.734375,0 -4.140625,2.12891 -1.40625,2.12891 -1.40625,6.30859 0,4.16016 1.40625,6.3086 1.40625,2.1289 4.140625,2.1289 2.753906,0 4.160156,-2.1289 1.40625,-2.14844 1.40625,-6.3086 0,-4.17968 -1.40625,-6.30859 -1.40625,-2.12891 -4.160156,-2.12891 z m 0,-3.04687 q 4.550781,0 6.953125,2.94922 2.421875,2.94922 2.421875,8.53515 0,5.60547 -2.402344,8.55469 -2.402344,2.92969 -6.972656,2.92969 -4.550781,0 -6.953125,-2.92969 -2.402344,-2.94922 -2.402344,-8.55469 0,-5.58593 2.402344,-8.53515 2.402344,-2.94922 6.953125,-2.94922 z"
         style="font-style:normal;font-variant:normal;font-weight:normal;font-stretch:normal;font-family:monospace;-inkscape-font-specification:monospace"
         id="path999" />
      <path
         d="m 100.40039,139.63477 v 6.21093 h 8.16406 v 2.79297 h -8.16406 v 11.875 q 0,2.42188 0.91797,3.37891 0.91797,0.95703 3.20312,0.95703 h 4.04297 v 2.87109 h -4.39453 q -4.04297,0 -5.703123,-1.62109 -1.660156,-1.62109 -1.660156,-5.58594 v -11.875 h -5.839844 v -2.79297 h 5.839844 v -6.21093 z"
         style="font-style:normal;font-variant:normal;font-weight:normal;font-stretch:normal;font-family:monospace;-inkscape-font-specification:monospace"
         id="path1001" />
      <path
         d="m 129.77539,137.36914 q -2.59766,4.45313 -3.88672,8.88672 -1.26953,4.41406 -1.26953,8.90625 0,4.47266 1.26953,8.90625 1.28906,4.43359 3.88672,8.92578 h -3.125 q -2.94922,-4.64844 -4.39453,-9.04297 -1.44531,-4.41406 -1.44531,-8.78906 0,-4.35547 1.44531,-8.76953 1.44531,-4.41406 4.39453,-9.02344 z"
         style="font-style:normal;font-variant:normal;font-weight:normal;font-stretch:normal;font-family:monospace;-inkscape-font-specification:monospace"
         id="path1003" />
      <path
         d="m 143.36914,137.36914 h 3.125 q 2.94922,4.60938 4.39453,9.02344 1.44531,4.41406 1.44531,8.76953 0,4.39453 -1.44531,8.80859 -1.44531,4.41407 -4.39453,9.02344 h -3.125 q 2.59766,-4.53125 3.86719,-8.96484 1.28906,-4.4336 1.28906,-8.86719 0,-4.45313 -1.28906,-8.88672 -1.26953,-4.43359 -3.86719,-8.90625 z"
         style="font-style:normal;font-variant:normal;font-weight:normal;font-stretch:normal;font-family:monospace;-inkscape-font-specification:monospace"
         id="path1005" />
    </g>
  </g>
</svg>
